<svg xmlns="http://www.w3.org/2000/svg" width="98.042" height="73.625" viewBox="0 0 98.042 73.625">
  <path id="Path_43" data-name="Path 43" d="M2425.762,4993.277s-8.55.407-5.564,8.957l-.814,2.851,6.378,2.171v-2.171h1.222s.814,2.035,2.443,1.356a2.674,2.674,0,0,0,1.493-2.578,6.742,6.742,0,0,0,.95-5.7h2.036s.407,3.664,2.85,4.071,13.572,4.207,18.186,7.872,5.157-3.665,5.157-3.665-.679-2.442-7.193-5.835a48.3,48.3,0,0,1,16.422,1.628c8.279,2.443,17.643-14.521,17.643-14.521l22.122-2.036s-6.107-2.85-4.614-7.057a15.97,15.97,0,0,1,4.614-6.65l-22.122,9.229-10.043,9.771,5.429-17.644,14.521-1.357s-4.886-2.443-4.479-4.614,4.75-6.785,3.393-9.906a26.83,26.83,0,0,1-1.764-6.651l-14.657,20.086-9.093,19.137s-8.008-3.122-20.629-1.222-13.979,2.172-13.979,2.172a7.3,7.3,0,0,0-2.579,2.307c-.95,1.493-3.664.95-3.664.95s.543-6.243,6.243-6.515,29.179-2.036,29.179-2.036l-.95-9.228-24.972,1.085s-4.207,1.629-3.257,5.429l1.086,2.714s-4.886-1.222-7.329,2.036A47.178,47.178,0,0,0,2425.762,4993.277Z" transform="translate(-3164.073 -4497.337) rotate(-9)" fill="#fff"/>
</svg>
